<svg width="81" height="81" viewBox="0 0 81 81" fill="none" xmlns="http://www.w3.org/2000/svg">
<path d="M0 36.2859C0 16.2458 16.2458 0 36.286 0H43.8197C63.8599 0 80.1056 16.2458 80.1056 36.286V43.8197C80.1056 63.8599 63.8599 80.1056 43.8197 80.1056H12.0953C5.41525 80.1056 0 74.6904 0 68.0103V36.2859Z" fill="#6089FF"/>
<path d="M20.6342 54.0094V43.1575C20.6342 42.4931 20.3322 42.1509 19.688 42.1509H15.6613V37.943H19.688C20.3322 37.943 20.6342 37.6007 20.6342 36.9363V26.0844C20.6054 25.6045 20.678 25.1238 20.8473 24.6737C21.0166 24.2236 21.2789 23.8143 21.617 23.4724C21.9552 23.1305 22.3615 22.8636 22.8097 22.6893C23.2578 22.5149 23.7377 22.437 24.218 22.4604H30.258V26.3059H25.8488C25.2246 26.3059 24.9025 26.6482 24.9025 27.3528V36.9363C24.922 37.3021 24.8657 37.668 24.7371 38.0111C24.6085 38.3541 24.4103 38.6668 24.1551 38.9296C23.8999 39.1924 23.5931 39.3996 23.2539 39.5382C22.9148 39.6767 22.5507 39.7437 22.1845 39.7348H21.6208V40.359H22.1845C22.5507 40.3501 22.9148 40.4171 23.2539 40.5557C23.5931 40.6942 23.8999 40.9014 24.1551 41.1642C24.4103 41.427 24.6085 41.7398 24.7371 42.0828C24.8657 42.4258 24.922 42.7917 24.9025 43.1575V52.6605C24.9025 53.3651 25.2246 53.7074 25.8488 53.7074H30.1573V57.4925H24.1173C23.6576 57.5006 23.201 57.4161 22.7747 57.244C22.3485 57.0719 21.9612 56.8156 21.6362 56.4905C21.3111 56.1654 21.0548 55.7782 20.8827 55.3519C20.7105 54.9256 20.626 54.469 20.6342 54.0094Z" fill="#41C0E1"/>
<path opacity="0.5" d="M43.4256 22.4606H47.8348L36.3991 57.5732H31.9899L43.4256 22.4606Z" fill="#41C0E1" fill-opacity="0.5"/>
<path d="M49.9491 53.7878H54.2577C54.8818 53.7878 55.2039 53.4455 55.2039 52.7408V43.1574C55.1844 42.7916 55.2407 42.4257 55.3693 42.0826C55.4979 41.7396 55.6961 41.4269 55.9513 41.1641C56.2065 40.9013 56.5133 40.6941 56.8525 40.5555C57.1916 40.417 57.5557 40.35 57.9219 40.3588H58.4857V39.7347H57.9219C57.5557 39.7436 57.1916 39.6766 56.8525 39.538C56.5133 39.3994 56.2065 39.1923 55.9513 38.9295C55.6961 38.6667 55.4979 38.3539 55.3693 38.0109C55.2407 37.6679 55.1844 37.302 55.2039 36.9362V27.3527C55.2039 26.648 54.8818 26.3058 54.2577 26.3058H49.9491V22.4603H55.9891C56.4611 22.4512 56.9299 22.5397 57.366 22.7205C57.8021 22.9012 58.1961 23.1702 58.5232 23.5106C58.8503 23.851 59.1035 24.2553 59.2668 24.6982C59.4301 25.1412 59.5 25.6131 59.4722 26.0843V36.9362C59.4722 37.6006 59.7742 37.9428 60.4185 37.9428H64.4451V42.1507H60.4185C59.7742 42.1507 59.4722 42.493 59.4722 43.1574V54.0092C59.4921 54.4825 59.4136 54.9548 59.2415 55.3962C59.0695 55.8376 58.8077 56.2384 58.4727 56.5734C58.1378 56.9084 57.7369 57.1702 57.2955 57.3422C56.8542 57.5142 56.3819 57.5928 55.9086 57.5728H49.8686L49.9491 53.7878Z" fill="#41C0E1"/>
</svg>
