<svg width="129" height="85" viewBox="0 0 129 85" fill="none" xmlns="http://www.w3.org/2000/svg">
<path d="M-6.10352e-05 39.9145C-6.10352e-05 17.8703 17.8703 -3.05176e-05 39.9144 -3.05176e-05H88.1055C110.15 -3.05176e-05 128.02 17.8703 128.02 39.9144V76.6234C128.02 81.0416 124.438 84.6234 120.02 84.6234H39.9144C17.8703 84.6234 -6.10352e-05 66.753 -6.10352e-05 44.7089V39.9145Z" fill="#6089FF"/>
<path d="M82.6505 59.606L78.4833 55.4388L91.448 42.4741L78.4833 29.0464L82.6505 24.8792L99.7824 42.4741L82.6505 59.606Z" fill="#90D0B5"/>
<path d="M46.0692 59.606L28.4743 42.4741L46.0692 24.8792L50.2364 29.0464L36.8087 42.4741L50.2364 55.4388L46.0692 59.606Z" fill="#90D0B5"/>
<path opacity="0.5" d="M60.8403 24.4642L55.2104 26.5951L67.9955 60.3743L73.6253 58.2434L60.8403 24.4642Z" fill="#90D0B5"/>
</svg>
