<svg width="25" height="32" viewBox="0 0 25 32" fill="none" xmlns="http://www.w3.org/2000/svg">
<path d="M15.6365 15.3892L17.2433 13.7824L15.6365 12.0149L16.4399 11.2115L18.8501 13.7824L16.4399 16.1926L15.6365 15.3892Z" fill="#174AFF"/>
<path d="M16.4405 11.5328L18.69 13.7823L16.4405 16.0319L15.7978 15.3891L17.4046 13.7823L15.7978 12.1755L16.4405 11.5328ZM16.4405 11.0508L16.2798 11.2115L15.6371 11.8542L15.4764 12.0149L15.6371 12.1755L17.0832 13.6217L15.6371 15.0678L15.4764 15.2285L15.6371 15.3891L16.2798 16.0319L16.4405 16.1925L16.6012 16.0319L18.8507 13.7823L19.0114 13.6217L18.8507 13.461L16.6012 11.2115L16.4405 11.0508Z" fill="#174AFF"/>
<path d="M6.95869 13.7824L9.3689 11.2115L10.1723 12.0149L8.5655 13.7824L10.1723 15.3892L9.3689 16.1926L6.95869 13.7824Z" fill="#174AFF"/>
<path d="M9.36942 11.5327L10.0121 12.1754L8.40534 13.7822L10.0121 15.389L9.36942 16.0317L7.11989 13.7822L9.36942 11.5327ZM9.36942 11.0507L9.20874 11.2113L6.95922 13.4609L6.79854 13.6215L6.95922 13.7822L9.20874 16.0317L9.36942 16.1924L9.53009 16.0317L10.1728 15.389L10.3335 15.2283H10.1728L8.72669 13.7822L10.1728 12.3361L10.3335 12.1754L10.1728 11.8541L9.53009 11.2113L9.36942 11.0507Z" fill="#174AFF"/>
<path d="M12.1847 10.4472L11.1325 10.8447L13.4606 17.0077L14.5128 16.6102L12.1847 10.4472Z" fill="#174AFF"/>
<path d="M12.2608 10.7294L14.5103 16.5138L13.7069 16.8352L11.4574 11.0507L12.2608 10.7294ZM12.4214 10.2473L12.1001 10.408L11.2967 10.7294L10.9753 10.89L11.136 11.2114L13.3855 16.9959L13.5462 17.3172L13.8676 17.1566L14.671 16.8352L14.9923 16.6745L14.8316 16.3532L12.5821 10.5687L12.4214 10.2473Z" fill="#174AFF"/>
<path d="M21.7418 7.35496V12.1754C21.7418 17.1564 17.7248 21.1734 12.7437 21.1734C7.76261 21.1734 3.74561 17.1564 3.74561 12.336V7.51564H21.7418M24.9554 4.14136H21.7418H3.74561H0.532013V7.35496V12.1754C0.532013 18.9239 5.99513 24.387 12.7437 24.387C19.4923 24.387 24.9554 18.9239 24.9554 12.1754V7.35496V4.14136Z" fill="#174AFF"/>
<path d="M12.7432 22.6196C12.7432 22.6196 14.8321 29.2075 3.74515 29.2075" stroke="#174AFF" stroke-width="4.36389" stroke-miterlimit="10"/>
<path d="M8.24408 7.35513V0.606567" stroke="#174AFF" stroke-width="4.36389" stroke-miterlimit="10"/>
<path d="M17.0819 7.35513V0.606567" stroke="#174AFF" stroke-width="4.36389" stroke-miterlimit="10"/>
</svg>
