<svg width="21" height="22" viewBox="0 0 21 22" fill="none" xmlns="http://www.w3.org/2000/svg">
<path d="M19.7813 10.95C19.7813 16.1173 15.5923 20.3062 10.425 20.3062M19.7813 10.95C19.7813 5.78269 15.5923 1.59375 10.425 1.59375M19.7813 10.95H1.06876M10.425 20.3062C5.25769 20.3062 1.06876 16.1173 1.06876 10.95M10.425 20.3062C12.1474 20.3062 13.5438 16.1173 13.5438 10.95C13.5438 5.78269 12.1474 1.59375 10.425 1.59375M10.425 20.3062C8.70257 20.3062 7.30626 16.1173 7.30626 10.95C7.30626 5.78269 8.70257 1.59375 10.425 1.59375M1.06876 10.95C1.06876 5.78269 5.25769 1.59375 10.425 1.59375" stroke="#0077FE" stroke-width="2.07917" stroke-linecap="round" stroke-linejoin="round"/>
</svg>
