<svg width="26" height="32" viewBox="0 0 26 32" fill="none" xmlns="http://www.w3.org/2000/svg">
<path d="M22.1813 3.58669V28.4139H3.81795V8.72842L8.66587 3.58669H22.1813ZM25.1194 0.64856H22.1813H8.66587H7.34371L6.46227 1.53L1.61435 6.67173L0.879822 7.55317V8.72842V28.4139V31.352H3.81795H22.1813H25.1194V28.4139V3.58669V0.64856Z" fill="#174AFF"/>
<path d="M9.40018 14.8983C7.78421 14.8983 6.75586 13.7231 6.75586 11.8133C6.75586 9.90352 7.78421 8.72827 9.40018 8.72827C11.0162 8.72827 12.0445 9.90352 12.0445 11.8133C12.0445 13.7231 11.0162 14.8983 9.40018 14.8983ZM9.40018 10.3442C8.81255 10.3442 8.66565 11.0788 8.66565 11.8133C8.66565 12.5478 8.81255 13.2824 9.40018 13.2824C9.98781 13.2824 10.1347 12.5478 10.1347 11.8133C10.1347 11.0788 9.8409 10.3442 9.40018 10.3442Z" fill="#174AFF"/>
<path d="M9.40078 8.87529C10.8699 8.87529 11.8982 9.90364 11.8982 11.8134C11.8982 13.7232 10.8699 14.7516 9.40078 14.7516C7.93172 14.7516 6.90337 13.7232 6.90337 11.8134C6.90337 9.90364 7.93172 8.87529 9.40078 8.87529ZM9.40078 13.4294C9.8415 13.4294 10.2822 12.9887 10.2822 11.8134C10.2822 10.6382 9.8415 10.1975 9.40078 10.1975C8.96006 10.1975 8.51934 10.6382 8.51934 11.8134C8.51934 12.9887 8.81316 13.4294 9.40078 13.4294ZM9.40078 8.43457C7.63791 8.43457 6.60956 9.75673 6.60956 11.6665C6.60956 13.5763 7.78481 14.8985 9.40078 14.8985C11.1637 14.8985 12.192 13.5763 12.192 11.6665C12.192 9.75673 11.0168 8.43457 9.40078 8.43457ZM9.40078 12.9887C8.96006 12.9887 8.96006 12.2541 8.96006 11.8134C8.96006 11.2258 9.10697 10.6382 9.40078 10.6382C9.8415 10.6382 9.8415 11.3727 9.8415 11.8134C9.8415 12.2541 9.8415 12.9887 9.40078 12.9887Z" fill="#174AFF"/>
<path d="M16.1571 14.7521V10.3449H15.1287V8.72888H18.0669V14.7521H16.1571Z" fill="#174AFF"/>
<path d="M17.9206 9.02251V14.605H16.3046V10.1978H15.2762V9.02251H17.9206ZM18.2144 8.58179H17.9206H15.2762H14.9824V8.8756V10.0509V10.3447H15.2762H16.0108V14.3111V14.605H16.3046H17.9206H18.2144V14.3111V8.72869V8.58179Z" fill="#174AFF"/>
<path d="M8.81375 24.3006V19.8934H7.7854V18.4243H10.8704V24.3006H8.81375Z" fill="#174AFF"/>
<path d="M10.7235 18.5713V24.1538H9.1075V19.7466H8.07915V18.5713H10.7235ZM11.0173 18.1306H10.7235H8.07915H7.78534V18.4244V19.5997V19.8935H8.07915H8.81369V23.86V24.1538H9.1075H10.7235H11.0173V23.86V18.2775V18.1306Z" fill="#174AFF"/>
<path d="M16.5996 24.4477C14.9836 24.4477 13.9553 23.2724 13.9553 21.3626C13.9553 19.4528 14.9836 18.2776 16.5996 18.2776C18.2156 18.2776 19.2439 19.4528 19.2439 21.3626C19.2439 23.2724 18.2156 24.4477 16.5996 24.4477ZM16.5996 19.8936C16.1589 19.8936 15.865 20.3343 15.865 21.3626C15.865 22.2441 16.1589 22.8317 16.5996 22.8317C17.1872 22.8317 17.3341 22.0972 17.3341 21.3626C17.3341 20.6281 17.1872 19.8936 16.5996 19.8936Z" fill="#174AFF"/>
<path d="M16.6 18.4244C18.0691 18.4244 19.0974 19.4528 19.0974 21.3626C19.0974 23.2723 18.0691 24.3007 16.6 24.3007C15.1309 24.3007 14.1026 23.2723 14.1026 21.3626C14.1026 19.4528 15.1309 18.4244 16.6 18.4244ZM16.6 22.9785C17.0407 22.9785 17.4814 22.5378 17.4814 21.3626C17.4814 20.1873 17.0407 19.7466 16.6 19.7466C16.1593 19.7466 15.7186 20.1873 15.7186 21.3626C15.7186 22.5378 16.0124 22.9785 16.6 22.9785ZM16.6 18.1306C14.8371 18.1306 13.8088 19.4528 13.8088 21.3626C13.8088 23.2723 14.984 24.5945 16.6 24.5945C18.3629 24.5945 19.3912 23.2723 19.3912 21.3626C19.3912 19.4528 18.216 18.1306 16.6 18.1306ZM16.6 22.5378C16.1593 22.5378 16.1593 21.8033 16.1593 21.3626C16.1593 20.7749 16.3062 20.1873 16.6 20.1873C17.0407 20.1873 17.0407 20.9218 17.0407 21.3626C17.0407 21.8033 17.0407 22.5378 16.6 22.5378Z" fill="#174AFF"/>
</svg>
