<svg width="970" height="327" viewBox="0 0 970 327" fill="none" xmlns="http://www.w3.org/2000/svg">
<g opacity="0.1">
<path d="M969.077 194.882C969.077 203.84 965 212.629 957.146 221.17C949.289 229.712 937.677 237.977 922.682 245.865C892.691 261.642 849.261 275.865 795.552 287.815C688.143 311.714 539.734 326.5 375.789 326.5C211.844 326.5 63.4347 311.714 -43.9747 287.815C-97.6835 275.865 -141.114 261.642 -171.104 245.865C-186.1 237.977 -197.712 229.712 -205.568 221.17C-213.423 212.629 -217.5 203.84 -217.5 194.882C-217.5 185.924 -213.423 177.134 -205.568 168.594C-197.712 160.051 -186.1 151.786 -171.104 143.898C-141.114 128.121 -97.6835 113.898 -43.9747 101.948C63.4347 78.0496 211.844 63.2637 375.789 63.2637C539.734 63.2637 688.143 78.0496 795.552 101.948C849.261 113.898 892.691 128.121 922.682 143.898C937.677 151.786 949.289 160.051 957.146 168.594C965 177.134 969.077 185.924 969.077 194.882Z" stroke="white"/>
<path d="M969.077 87.9998C969.077 96.9579 965 105.748 957.146 114.288C949.289 122.831 937.677 131.095 922.682 138.984C892.691 154.76 849.261 168.983 795.552 180.933C688.143 204.832 539.734 219.618 375.789 219.618C211.844 219.618 63.4347 204.832 -43.9747 180.933C-97.6835 168.983 -141.114 154.76 -171.104 138.984C-186.1 131.095 -197.712 122.831 -205.568 114.288C-213.423 105.748 -217.5 96.9579 -217.5 87.9998C-217.5 79.0418 -213.423 70.252 -205.568 61.7119C-197.712 53.1691 -186.1 44.9046 -171.104 37.016C-141.114 21.2394 -97.6835 7.01657 -43.9747 -4.93364C63.4347 -28.8322 211.844 -43.6182 375.789 -43.6182C539.734 -43.6182 688.143 -28.8322 795.552 -4.93364C849.261 7.01657 892.691 21.2394 922.682 37.016C937.677 44.9046 949.289 53.1691 957.146 61.7119C965 70.252 969.077 79.0418 969.077 87.9998Z" stroke="white"/>
<path d="M969.077 -18.882C969.077 -9.92397 965 -1.13422 957.146 7.4059C949.289 15.9487 937.677 24.2132 922.682 32.1018C892.691 47.8784 849.261 62.1012 795.552 74.0514C688.143 97.95 539.734 112.736 375.789 112.736C211.844 112.736 63.4347 97.95 -43.9747 74.0514C-97.6835 62.1012 -141.114 47.8784 -171.104 32.1018C-186.1 24.2132 -197.712 15.9487 -205.568 7.4059C-213.423 -1.13422 -217.5 -9.92397 -217.5 -18.882C-217.5 -27.8401 -213.423 -36.6298 -205.568 -45.1699C-197.712 -53.7127 -186.1 -61.9772 -171.104 -69.8658C-141.114 -85.6424 -97.6835 -99.8653 -43.9747 -111.815C63.4347 -135.714 211.844 -150.5 375.789 -150.5C539.734 -150.5 688.143 -135.714 795.552 -111.815C849.261 -99.8653 892.691 -85.6424 922.682 -69.8658C937.677 -61.9772 949.289 -53.7127 957.146 -45.1699C965 -36.6298 969.077 -27.8401 969.077 -18.882Z" stroke="white"/>
</g>
</svg>
